<svg xmlns="http://www.w3.org/2000/svg" viewBox="0 0 760 406" width="760" height="406" font-family="'Baloo 2','Fredoka','Trebuchet MS',system-ui,sans-serif">
  <defs>
    <style>@import url('https://fonts.googleapis.com/css2?family=Baloo+2:wght@700;800&amp;family=Fredoka:wght@500;600;700&amp;display=swap');</style>
    <filter id="sh" x="-40%" y="-40%" width="180%" height="180%"><feDropShadow dx="0" dy="7" stdDeviation="0" flood-color="#21314B" flood-opacity="0.25"/></filter>
  </defs>

  <!-- accurate periodic table (all 118 elements) -->
  <g><rect x="57" y="46" width="33" height="33" rx="5" fill="#E6F0A6" stroke="#21314B" stroke-width="1.5"/><text x="61" y="56.5" font-size="7.5" font-weight="600" fill="#21314B" opacity="0.72">1</text><text x="73.5" y="70.0" text-anchor="middle" font-size="15" font-weight="800" fill="#21314B">H</text></g>
  <g><rect x="669" y="46" width="33" height="33" rx="5" fill="#C9D4F7" stroke="#21314B" stroke-width="1.5"/><text x="673" y="56.5" font-size="7.5" font-weight="600" fill="#21314B" opacity="0.72">2</text><text x="685.5" y="70.0" text-anchor="middle" font-size="15" font-weight="800" fill="#21314B">He</text></g>
  <g><rect x="57" y="82" width="33" height="33" rx="5" fill="#FFB59E" stroke="#21314B" stroke-width="1.5"/><text x="61" y="92.5" font-size="7.5" font-weight="600" fill="#21314B" opacity="0.72">3</text><text x="73.5" y="106.0" text-anchor="middle" font-size="15" font-weight="800" fill="#21314B">Li</text></g>
  <g><rect x="93" y="82" width="33" height="33" rx="5" fill="#FFD98A" stroke="#21314B" stroke-width="1.5"/><text x="97" y="92.5" font-size="7.5" font-weight="600" fill="#21314B" opacity="0.72">4</text><text x="109.5" y="106.0" text-anchor="middle" font-size="15" font-weight="800" fill="#21314B">Be</text></g>
  <g><rect x="489" y="82" width="33" height="33" rx="5" fill="#C9E89A" stroke="#21314B" stroke-width="1.5"/><text x="493" y="92.5" font-size="7.5" font-weight="600" fill="#21314B" opacity="0.72">5</text><text x="505.5" y="106.0" text-anchor="middle" font-size="15" font-weight="800" fill="#21314B">B</text></g>
  <g><rect x="525" y="82" width="33" height="33" rx="5" fill="#E6F0A6" stroke="#21314B" stroke-width="1.5"/><text x="529" y="92.5" font-size="7.5" font-weight="600" fill="#21314B" opacity="0.72">6</text><text x="541.5" y="106.0" text-anchor="middle" font-size="15" font-weight="800" fill="#21314B">C</text></g>
  <g><rect x="561" y="82" width="33" height="33" rx="5" fill="#E6F0A6" stroke="#21314B" stroke-width="1.5"/><text x="565" y="92.5" font-size="7.5" font-weight="600" fill="#21314B" opacity="0.72">7</text><text x="577.5" y="106.0" text-anchor="middle" font-size="15" font-weight="800" fill="#21314B">N</text></g>
  <g><rect x="597" y="82" width="33" height="33" rx="5" fill="#E6F0A6" stroke="#21314B" stroke-width="1.5"/><text x="601" y="92.5" font-size="7.5" font-weight="600" fill="#21314B" opacity="0.72">8</text><text x="613.5" y="106.0" text-anchor="middle" font-size="15" font-weight="800" fill="#21314B">O</text></g>
  <g><rect x="633" y="82" width="33" height="33" rx="5" fill="#F7B7D2" stroke="#21314B" stroke-width="1.5"/><text x="637" y="92.5" font-size="7.5" font-weight="600" fill="#21314B" opacity="0.72">9</text><text x="649.5" y="106.0" text-anchor="middle" font-size="15" font-weight="800" fill="#21314B">F</text></g>
  <g><rect x="669" y="82" width="33" height="33" rx="5" fill="#C9D4F7" stroke="#21314B" stroke-width="1.5"/><text x="673" y="92.5" font-size="7.5" font-weight="600" fill="#21314B" opacity="0.72">10</text><text x="685.5" y="106.0" text-anchor="middle" font-size="15" font-weight="800" fill="#21314B">Ne</text></g>
  <g><rect x="57" y="118" width="33" height="33" rx="5" fill="#FFB59E" stroke="#21314B" stroke-width="1.5"/><text x="61" y="128.5" font-size="7.5" font-weight="600" fill="#21314B" opacity="0.72">11</text><text x="73.5" y="142.0" text-anchor="middle" font-size="15" font-weight="800" fill="#21314B">Na</text></g>
  <g><rect x="93" y="118" width="33" height="33" rx="5" fill="#FFD98A" stroke="#21314B" stroke-width="1.5"/><text x="97" y="128.5" font-size="7.5" font-weight="600" fill="#21314B" opacity="0.72">12</text><text x="109.5" y="142.0" text-anchor="middle" font-size="15" font-weight="800" fill="#21314B">Mg</text></g>
  <g><rect x="489" y="118" width="33" height="33" rx="5" fill="#B9E4D0" stroke="#21314B" stroke-width="1.5"/><text x="493" y="128.5" font-size="7.5" font-weight="600" fill="#21314B" opacity="0.72">13</text><text x="505.5" y="142.0" text-anchor="middle" font-size="15" font-weight="800" fill="#21314B">Al</text></g>
  <g><rect x="525" y="118" width="33" height="33" rx="5" fill="#C9E89A" stroke="#21314B" stroke-width="1.5"/><text x="529" y="128.5" font-size="7.5" font-weight="600" fill="#21314B" opacity="0.72">14</text><text x="541.5" y="142.0" text-anchor="middle" font-size="15" font-weight="800" fill="#21314B">Si</text></g>
  <g><rect x="561" y="118" width="33" height="33" rx="5" fill="#E6F0A6" stroke="#21314B" stroke-width="1.5"/><text x="565" y="128.5" font-size="7.5" font-weight="600" fill="#21314B" opacity="0.72">15</text><text x="577.5" y="142.0" text-anchor="middle" font-size="15" font-weight="800" fill="#21314B">P</text></g>
  <g><rect x="597" y="118" width="33" height="33" rx="5" fill="#E6F0A6" stroke="#21314B" stroke-width="1.5"/><text x="601" y="128.5" font-size="7.5" font-weight="600" fill="#21314B" opacity="0.72">16</text><text x="613.5" y="142.0" text-anchor="middle" font-size="15" font-weight="800" fill="#21314B">S</text></g>
  <g><rect x="633" y="118" width="33" height="33" rx="5" fill="#F7B7D2" stroke="#21314B" stroke-width="1.5"/><text x="637" y="128.5" font-size="7.5" font-weight="600" fill="#21314B" opacity="0.72">17</text><text x="649.5" y="142.0" text-anchor="middle" font-size="15" font-weight="800" fill="#21314B">Cl</text></g>
  <g><rect x="669" y="118" width="33" height="33" rx="5" fill="#C9D4F7" stroke="#21314B" stroke-width="1.5"/><text x="673" y="128.5" font-size="7.5" font-weight="600" fill="#21314B" opacity="0.72">18</text><text x="685.5" y="142.0" text-anchor="middle" font-size="15" font-weight="800" fill="#21314B">Ar</text></g>
  <g><rect x="57" y="154" width="33" height="33" rx="5" fill="#FFB59E" stroke="#21314B" stroke-width="1.5"/><text x="61" y="164.5" font-size="7.5" font-weight="600" fill="#21314B" opacity="0.72">19</text><text x="73.5" y="178.0" text-anchor="middle" font-size="15" font-weight="800" fill="#21314B">K</text></g>
  <g><rect x="93" y="154" width="33" height="33" rx="5" fill="#FFD98A" stroke="#21314B" stroke-width="1.5"/><text x="97" y="164.5" font-size="7.5" font-weight="600" fill="#21314B" opacity="0.72">20</text><text x="109.5" y="178.0" text-anchor="middle" font-size="15" font-weight="800" fill="#21314B">Ca</text></g>
  <g><rect x="129" y="154" width="33" height="33" rx="5" fill="#BFE3F2" stroke="#21314B" stroke-width="1.5"/><text x="133" y="164.5" font-size="7.5" font-weight="600" fill="#21314B" opacity="0.72">21</text><text x="145.5" y="178.0" text-anchor="middle" font-size="15" font-weight="800" fill="#21314B">Sc</text></g>
  <g><rect x="165" y="154" width="33" height="33" rx="5" fill="#BFE3F2" stroke="#21314B" stroke-width="1.5"/><text x="169" y="164.5" font-size="7.5" font-weight="600" fill="#21314B" opacity="0.72">22</text><text x="181.5" y="178.0" text-anchor="middle" font-size="15" font-weight="800" fill="#21314B">Ti</text></g>
  <g><rect x="201" y="154" width="33" height="33" rx="5" fill="#BFE3F2" stroke="#21314B" stroke-width="1.5"/><text x="205" y="164.5" font-size="7.5" font-weight="600" fill="#21314B" opacity="0.72">23</text><text x="217.5" y="178.0" text-anchor="middle" font-size="15" font-weight="800" fill="#21314B">V</text></g>
  <g><rect x="237" y="154" width="33" height="33" rx="5" fill="#BFE3F2" stroke="#21314B" stroke-width="1.5"/><text x="241" y="164.5" font-size="7.5" font-weight="600" fill="#21314B" opacity="0.72">24</text><text x="253.5" y="178.0" text-anchor="middle" font-size="15" font-weight="800" fill="#21314B">Cr</text></g>
  <g><rect x="273" y="154" width="33" height="33" rx="5" fill="#BFE3F2" stroke="#21314B" stroke-width="1.5"/><text x="277" y="164.5" font-size="7.5" font-weight="600" fill="#21314B" opacity="0.72">25</text><text x="289.5" y="178.0" text-anchor="middle" font-size="15" font-weight="800" fill="#21314B">Mn</text></g>
  <g><rect x="309" y="154" width="33" height="33" rx="5" fill="#BFE3F2" stroke="#21314B" stroke-width="1.5"/><text x="313" y="164.5" font-size="7.5" font-weight="600" fill="#21314B" opacity="0.72">26</text><text x="325.5" y="178.0" text-anchor="middle" font-size="15" font-weight="800" fill="#21314B">Fe</text></g>
  <g><rect x="345" y="154" width="33" height="33" rx="5" fill="#BFE3F2" stroke="#21314B" stroke-width="1.5"/><text x="349" y="164.5" font-size="7.5" font-weight="600" fill="#21314B" opacity="0.72">27</text><text x="361.5" y="178.0" text-anchor="middle" font-size="15" font-weight="800" fill="#21314B">Co</text></g>
  <g><rect x="381" y="154" width="33" height="33" rx="5" fill="#BFE3F2" stroke="#21314B" stroke-width="1.5"/><text x="385" y="164.5" font-size="7.5" font-weight="600" fill="#21314B" opacity="0.72">28</text><text x="397.5" y="178.0" text-anchor="middle" font-size="15" font-weight="800" fill="#21314B">Ni</text></g>
  <g><rect x="417" y="154" width="33" height="33" rx="5" fill="#BFE3F2" stroke="#21314B" stroke-width="1.5"/><text x="421" y="164.5" font-size="7.5" font-weight="600" fill="#21314B" opacity="0.72">29</text><text x="433.5" y="178.0" text-anchor="middle" font-size="15" font-weight="800" fill="#21314B">Cu</text></g>
  <g><rect x="453" y="154" width="33" height="33" rx="5" fill="#BFE3F2" stroke="#21314B" stroke-width="1.5"/><text x="457" y="164.5" font-size="7.5" font-weight="600" fill="#21314B" opacity="0.72">30</text><text x="469.5" y="178.0" text-anchor="middle" font-size="15" font-weight="800" fill="#21314B">Zn</text></g>
  <g><rect x="489" y="154" width="33" height="33" rx="5" fill="#B9E4D0" stroke="#21314B" stroke-width="1.5"/><text x="493" y="164.5" font-size="7.5" font-weight="600" fill="#21314B" opacity="0.72">31</text><text x="505.5" y="178.0" text-anchor="middle" font-size="15" font-weight="800" fill="#21314B">Ga</text></g>
  <g><rect x="525" y="154" width="33" height="33" rx="5" fill="#C9E89A" stroke="#21314B" stroke-width="1.5"/><text x="529" y="164.5" font-size="7.5" font-weight="600" fill="#21314B" opacity="0.72">32</text><text x="541.5" y="178.0" text-anchor="middle" font-size="15" font-weight="800" fill="#21314B">Ge</text></g>
  <g><rect x="561" y="154" width="33" height="33" rx="5" fill="#C9E89A" stroke="#21314B" stroke-width="1.5"/><text x="565" y="164.5" font-size="7.5" font-weight="600" fill="#21314B" opacity="0.72">33</text><text x="577.5" y="178.0" text-anchor="middle" font-size="15" font-weight="800" fill="#21314B">As</text></g>
  <g><rect x="597" y="154" width="33" height="33" rx="5" fill="#E6F0A6" stroke="#21314B" stroke-width="1.5"/><text x="601" y="164.5" font-size="7.5" font-weight="600" fill="#21314B" opacity="0.72">34</text><text x="613.5" y="178.0" text-anchor="middle" font-size="15" font-weight="800" fill="#21314B">Se</text></g>
  <g><rect x="633" y="154" width="33" height="33" rx="5" fill="#F7B7D2" stroke="#21314B" stroke-width="1.5"/><text x="637" y="164.5" font-size="7.5" font-weight="600" fill="#21314B" opacity="0.72">35</text><text x="649.5" y="178.0" text-anchor="middle" font-size="15" font-weight="800" fill="#21314B">Br</text></g>
  <g><rect x="669" y="154" width="33" height="33" rx="5" fill="#C9D4F7" stroke="#21314B" stroke-width="1.5"/><text x="673" y="164.5" font-size="7.5" font-weight="600" fill="#21314B" opacity="0.72">36</text><text x="685.5" y="178.0" text-anchor="middle" font-size="15" font-weight="800" fill="#21314B">Kr</text></g>
  <g><rect x="57" y="190" width="33" height="33" rx="5" fill="#FFB59E" stroke="#21314B" stroke-width="1.5"/><text x="61" y="200.5" font-size="7.5" font-weight="600" fill="#21314B" opacity="0.72">37</text><text x="73.5" y="214.0" text-anchor="middle" font-size="15" font-weight="800" fill="#21314B">Rb</text></g>
  <g><rect x="93" y="190" width="33" height="33" rx="5" fill="#FFD98A" stroke="#21314B" stroke-width="1.5"/><text x="97" y="200.5" font-size="7.5" font-weight="600" fill="#21314B" opacity="0.72">38</text><text x="109.5" y="214.0" text-anchor="middle" font-size="15" font-weight="800" fill="#21314B">Sr</text></g>
  <g><rect x="129" y="190" width="33" height="33" rx="5" fill="#BFE3F2" stroke="#21314B" stroke-width="1.5"/><text x="133" y="200.5" font-size="7.5" font-weight="600" fill="#21314B" opacity="0.72">39</text><text x="145.5" y="214.0" text-anchor="middle" font-size="15" font-weight="800" fill="#21314B">Y</text></g>
  <g><rect x="165" y="190" width="33" height="33" rx="5" fill="#BFE3F2" stroke="#21314B" stroke-width="1.5"/><text x="169" y="200.5" font-size="7.5" font-weight="600" fill="#21314B" opacity="0.72">40</text><text x="181.5" y="214.0" text-anchor="middle" font-size="15" font-weight="800" fill="#21314B">Zr</text></g>
  <g><rect x="201" y="190" width="33" height="33" rx="5" fill="#BFE3F2" stroke="#21314B" stroke-width="1.5"/><text x="205" y="200.5" font-size="7.5" font-weight="600" fill="#21314B" opacity="0.72">41</text><text x="217.5" y="214.0" text-anchor="middle" font-size="15" font-weight="800" fill="#21314B">Nb</text></g>
  <g><rect x="237" y="190" width="33" height="33" rx="5" fill="#BFE3F2" stroke="#21314B" stroke-width="1.5"/><text x="241" y="200.5" font-size="7.5" font-weight="600" fill="#21314B" opacity="0.72">42</text><text x="253.5" y="214.0" text-anchor="middle" font-size="15" font-weight="800" fill="#21314B">Mo</text></g>
  <g><rect x="273" y="190" width="33" height="33" rx="5" fill="#BFE3F2" stroke="#21314B" stroke-width="1.5"/><text x="277" y="200.5" font-size="7.5" font-weight="600" fill="#21314B" opacity="0.72">43</text><text x="289.5" y="214.0" text-anchor="middle" font-size="15" font-weight="800" fill="#21314B">Tc</text></g>
  <g><rect x="309" y="190" width="33" height="33" rx="5" fill="#BFE3F2" stroke="#21314B" stroke-width="1.5"/><text x="313" y="200.5" font-size="7.5" font-weight="600" fill="#21314B" opacity="0.72">44</text><text x="325.5" y="214.0" text-anchor="middle" font-size="15" font-weight="800" fill="#21314B">Ru</text></g>
  <g><rect x="345" y="190" width="33" height="33" rx="5" fill="#BFE3F2" stroke="#21314B" stroke-width="1.5"/><text x="349" y="200.5" font-size="7.5" font-weight="600" fill="#21314B" opacity="0.72">45</text><text x="361.5" y="214.0" text-anchor="middle" font-size="15" font-weight="800" fill="#21314B">Rh</text></g>
  <g><rect x="381" y="190" width="33" height="33" rx="5" fill="#BFE3F2" stroke="#21314B" stroke-width="1.5"/><text x="385" y="200.5" font-size="7.5" font-weight="600" fill="#21314B" opacity="0.72">46</text><text x="397.5" y="214.0" text-anchor="middle" font-size="15" font-weight="800" fill="#21314B">Pd</text></g>
  <g><rect x="417" y="190" width="33" height="33" rx="5" fill="#BFE3F2" stroke="#21314B" stroke-width="1.5"/><text x="421" y="200.5" font-size="7.5" font-weight="600" fill="#21314B" opacity="0.72">47</text><text x="433.5" y="214.0" text-anchor="middle" font-size="15" font-weight="800" fill="#21314B">Ag</text></g>
  <g><rect x="453" y="190" width="33" height="33" rx="5" fill="#BFE3F2" stroke="#21314B" stroke-width="1.5"/><text x="457" y="200.5" font-size="7.5" font-weight="600" fill="#21314B" opacity="0.72">48</text><text x="469.5" y="214.0" text-anchor="middle" font-size="15" font-weight="800" fill="#21314B">Cd</text></g>
  <g><rect x="489" y="190" width="33" height="33" rx="5" fill="#B9E4D0" stroke="#21314B" stroke-width="1.5"/><text x="493" y="200.5" font-size="7.5" font-weight="600" fill="#21314B" opacity="0.72">49</text><text x="505.5" y="214.0" text-anchor="middle" font-size="15" font-weight="800" fill="#21314B">In</text></g>
  <g><rect x="525" y="190" width="33" height="33" rx="5" fill="#B9E4D0" stroke="#21314B" stroke-width="1.5"/><text x="529" y="200.5" font-size="7.5" font-weight="600" fill="#21314B" opacity="0.72">50</text><text x="541.5" y="214.0" text-anchor="middle" font-size="15" font-weight="800" fill="#21314B">Sn</text></g>
  <g><rect x="561" y="190" width="33" height="33" rx="5" fill="#C9E89A" stroke="#21314B" stroke-width="1.5"/><text x="565" y="200.5" font-size="7.5" font-weight="600" fill="#21314B" opacity="0.72">51</text><text x="577.5" y="214.0" text-anchor="middle" font-size="15" font-weight="800" fill="#21314B">Sb</text></g>
  <g><rect x="597" y="190" width="33" height="33" rx="5" fill="#C9E89A" stroke="#21314B" stroke-width="1.5"/><text x="601" y="200.5" font-size="7.5" font-weight="600" fill="#21314B" opacity="0.72">52</text><text x="613.5" y="214.0" text-anchor="middle" font-size="15" font-weight="800" fill="#21314B">Te</text></g>
  <g><rect x="633" y="190" width="33" height="33" rx="5" fill="#F7B7D2" stroke="#21314B" stroke-width="1.5"/><text x="637" y="200.5" font-size="7.5" font-weight="600" fill="#21314B" opacity="0.72">53</text><text x="649.5" y="214.0" text-anchor="middle" font-size="15" font-weight="800" fill="#21314B">I</text></g>
  <g><rect x="669" y="190" width="33" height="33" rx="5" fill="#C9D4F7" stroke="#21314B" stroke-width="1.5"/><text x="673" y="200.5" font-size="7.5" font-weight="600" fill="#21314B" opacity="0.72">54</text><text x="685.5" y="214.0" text-anchor="middle" font-size="15" font-weight="800" fill="#21314B">Xe</text></g>
  <g><rect x="57" y="226" width="33" height="33" rx="5" fill="#FFB59E" stroke="#21314B" stroke-width="1.5"/><text x="61" y="236.5" font-size="7.5" font-weight="600" fill="#21314B" opacity="0.72">55</text><text x="73.5" y="250.0" text-anchor="middle" font-size="15" font-weight="800" fill="#21314B">Cs</text></g>
  <g><rect x="93" y="226" width="33" height="33" rx="5" fill="#FFD98A" stroke="#21314B" stroke-width="1.5"/><text x="97" y="236.5" font-size="7.5" font-weight="600" fill="#21314B" opacity="0.72">56</text><text x="109.5" y="250.0" text-anchor="middle" font-size="15" font-weight="800" fill="#21314B">Ba</text></g>
  <g><rect x="129" y="226" width="33" height="33" rx="5" fill="#D9C2F0" stroke="#21314B" stroke-width="1.5"/><text x="133" y="236.5" font-size="7.5" font-weight="600" fill="#21314B" opacity="0.72">71</text><text x="145.5" y="250.0" text-anchor="middle" font-size="15" font-weight="800" fill="#21314B">Lu</text></g>
  <g><rect x="165" y="226" width="33" height="33" rx="5" fill="#BFE3F2" stroke="#21314B" stroke-width="1.5"/><text x="169" y="236.5" font-size="7.5" font-weight="600" fill="#21314B" opacity="0.72">72</text><text x="181.5" y="250.0" text-anchor="middle" font-size="15" font-weight="800" fill="#21314B">Hf</text></g>
  <g><rect x="201" y="226" width="33" height="33" rx="5" fill="#BFE3F2" stroke="#21314B" stroke-width="1.5"/><text x="205" y="236.5" font-size="7.5" font-weight="600" fill="#21314B" opacity="0.72">73</text><text x="217.5" y="250.0" text-anchor="middle" font-size="15" font-weight="800" fill="#21314B">Ta</text></g>
  <g><rect x="237" y="226" width="33" height="33" rx="5" fill="#BFE3F2" stroke="#21314B" stroke-width="1.5"/><text x="241" y="236.5" font-size="7.5" font-weight="600" fill="#21314B" opacity="0.72">74</text><text x="253.5" y="250.0" text-anchor="middle" font-size="15" font-weight="800" fill="#21314B">W</text></g>
  <g><rect x="273" y="226" width="33" height="33" rx="5" fill="#BFE3F2" stroke="#21314B" stroke-width="1.5"/><text x="277" y="236.5" font-size="7.5" font-weight="600" fill="#21314B" opacity="0.72">75</text><text x="289.5" y="250.0" text-anchor="middle" font-size="15" font-weight="800" fill="#21314B">Re</text></g>
  <g><rect x="309" y="226" width="33" height="33" rx="5" fill="#BFE3F2" stroke="#21314B" stroke-width="1.5"/><text x="313" y="236.5" font-size="7.5" font-weight="600" fill="#21314B" opacity="0.72">76</text><text x="325.5" y="250.0" text-anchor="middle" font-size="15" font-weight="800" fill="#21314B">Os</text></g>
  <g><rect x="345" y="226" width="33" height="33" rx="5" fill="#BFE3F2" stroke="#21314B" stroke-width="1.5"/><text x="349" y="236.5" font-size="7.5" font-weight="600" fill="#21314B" opacity="0.72">77</text><text x="361.5" y="250.0" text-anchor="middle" font-size="15" font-weight="800" fill="#21314B">Ir</text></g>
  <g><rect x="381" y="226" width="33" height="33" rx="5" fill="#BFE3F2" stroke="#21314B" stroke-width="1.5"/><text x="385" y="236.5" font-size="7.5" font-weight="600" fill="#21314B" opacity="0.72">78</text><text x="397.5" y="250.0" text-anchor="middle" font-size="15" font-weight="800" fill="#21314B">Pt</text></g>
  <g><rect x="417" y="226" width="33" height="33" rx="5" fill="#BFE3F2" stroke="#21314B" stroke-width="1.5"/><text x="421" y="236.5" font-size="7.5" font-weight="600" fill="#21314B" opacity="0.72">79</text><text x="433.5" y="250.0" text-anchor="middle" font-size="15" font-weight="800" fill="#21314B">Au</text></g>
  <g><rect x="453" y="226" width="33" height="33" rx="5" fill="#BFE3F2" stroke="#21314B" stroke-width="1.5"/><text x="457" y="236.5" font-size="7.5" font-weight="600" fill="#21314B" opacity="0.72">80</text><text x="469.5" y="250.0" text-anchor="middle" font-size="15" font-weight="800" fill="#21314B">Hg</text></g>
  <g><rect x="489" y="226" width="33" height="33" rx="5" fill="#B9E4D0" stroke="#21314B" stroke-width="1.5"/><text x="493" y="236.5" font-size="7.5" font-weight="600" fill="#21314B" opacity="0.72">81</text><text x="505.5" y="250.0" text-anchor="middle" font-size="15" font-weight="800" fill="#21314B">Tl</text></g>
  <g><rect x="525" y="226" width="33" height="33" rx="5" fill="#B9E4D0" stroke="#21314B" stroke-width="1.5"/><text x="529" y="236.5" font-size="7.5" font-weight="600" fill="#21314B" opacity="0.72">82</text><text x="541.5" y="250.0" text-anchor="middle" font-size="15" font-weight="800" fill="#21314B">Pb</text></g>
  <g><rect x="561" y="226" width="33" height="33" rx="5" fill="#B9E4D0" stroke="#21314B" stroke-width="1.5"/><text x="565" y="236.5" font-size="7.5" font-weight="600" fill="#21314B" opacity="0.72">83</text><text x="577.5" y="250.0" text-anchor="middle" font-size="15" font-weight="800" fill="#21314B">Bi</text></g>
  <g><rect x="597" y="226" width="33" height="33" rx="5" fill="#B9E4D0" stroke="#21314B" stroke-width="1.5"/><text x="601" y="236.5" font-size="7.5" font-weight="600" fill="#21314B" opacity="0.72">84</text><text x="613.5" y="250.0" text-anchor="middle" font-size="15" font-weight="800" fill="#21314B">Po</text></g>
  <g><rect x="633" y="226" width="33" height="33" rx="5" fill="#F7B7D2" stroke="#21314B" stroke-width="1.5"/><text x="637" y="236.5" font-size="7.5" font-weight="600" fill="#21314B" opacity="0.72">85</text><text x="649.5" y="250.0" text-anchor="middle" font-size="15" font-weight="800" fill="#21314B">At</text></g>
  <g><rect x="669" y="226" width="33" height="33" rx="5" fill="#C9D4F7" stroke="#21314B" stroke-width="1.5"/><text x="673" y="236.5" font-size="7.5" font-weight="600" fill="#21314B" opacity="0.72">86</text><text x="685.5" y="250.0" text-anchor="middle" font-size="15" font-weight="800" fill="#21314B">Rn</text></g>
  <g><rect x="57" y="262" width="33" height="33" rx="5" fill="#FFB59E" stroke="#21314B" stroke-width="1.5"/><text x="61" y="272.5" font-size="7.5" font-weight="600" fill="#21314B" opacity="0.72">87</text><text x="73.5" y="286.0" text-anchor="middle" font-size="15" font-weight="800" fill="#21314B">Fr</text></g>
  <g><rect x="93" y="262" width="33" height="33" rx="5" fill="#FFD98A" stroke="#21314B" stroke-width="1.5"/><text x="97" y="272.5" font-size="7.5" font-weight="600" fill="#21314B" opacity="0.72">88</text><text x="109.5" y="286.0" text-anchor="middle" font-size="15" font-weight="800" fill="#21314B">Ra</text></g>
  <g><rect x="129" y="262" width="33" height="33" rx="5" fill="#F2C4DC" stroke="#21314B" stroke-width="1.5"/><text x="133" y="272.5" font-size="7.5" font-weight="600" fill="#21314B" opacity="0.72">103</text><text x="145.5" y="286.0" text-anchor="middle" font-size="15" font-weight="800" fill="#21314B">Lr</text></g>
  <g><rect x="165" y="262" width="33" height="33" rx="5" fill="#BFE3F2" stroke="#21314B" stroke-width="1.5"/><text x="169" y="272.5" font-size="7.5" font-weight="600" fill="#21314B" opacity="0.72">104</text><text x="181.5" y="286.0" text-anchor="middle" font-size="15" font-weight="800" fill="#21314B">Rf</text></g>
  <g><rect x="201" y="262" width="33" height="33" rx="5" fill="#BFE3F2" stroke="#21314B" stroke-width="1.5"/><text x="205" y="272.5" font-size="7.5" font-weight="600" fill="#21314B" opacity="0.72">105</text><text x="217.5" y="286.0" text-anchor="middle" font-size="15" font-weight="800" fill="#21314B">Db</text></g>
  <g><rect x="237" y="262" width="33" height="33" rx="5" fill="#BFE3F2" stroke="#21314B" stroke-width="1.5"/><text x="241" y="272.5" font-size="7.5" font-weight="600" fill="#21314B" opacity="0.72">106</text><text x="253.5" y="286.0" text-anchor="middle" font-size="15" font-weight="800" fill="#21314B">Sg</text></g>
  <g><rect x="273" y="262" width="33" height="33" rx="5" fill="#BFE3F2" stroke="#21314B" stroke-width="1.5"/><text x="277" y="272.5" font-size="7.5" font-weight="600" fill="#21314B" opacity="0.72">107</text><text x="289.5" y="286.0" text-anchor="middle" font-size="15" font-weight="800" fill="#21314B">Bh</text></g>
  <g><rect x="309" y="262" width="33" height="33" rx="5" fill="#BFE3F2" stroke="#21314B" stroke-width="1.5"/><text x="313" y="272.5" font-size="7.5" font-weight="600" fill="#21314B" opacity="0.72">108</text><text x="325.5" y="286.0" text-anchor="middle" font-size="15" font-weight="800" fill="#21314B">Hs</text></g>
  <g><rect x="345" y="262" width="33" height="33" rx="5" fill="#BFE3F2" stroke="#21314B" stroke-width="1.5"/><text x="349" y="272.5" font-size="7.5" font-weight="600" fill="#21314B" opacity="0.72">109</text><text x="361.5" y="286.0" text-anchor="middle" font-size="15" font-weight="800" fill="#21314B">Mt</text></g>
  <g><rect x="381" y="262" width="33" height="33" rx="5" fill="#BFE3F2" stroke="#21314B" stroke-width="1.5"/><text x="385" y="272.5" font-size="7.5" font-weight="600" fill="#21314B" opacity="0.72">110</text><text x="397.5" y="286.0" text-anchor="middle" font-size="15" font-weight="800" fill="#21314B">Ds</text></g>
  <g><rect x="417" y="262" width="33" height="33" rx="5" fill="#BFE3F2" stroke="#21314B" stroke-width="1.5"/><text x="421" y="272.5" font-size="7.5" font-weight="600" fill="#21314B" opacity="0.72">111</text><text x="433.5" y="286.0" text-anchor="middle" font-size="15" font-weight="800" fill="#21314B">Rg</text></g>
  <g><rect x="453" y="262" width="33" height="33" rx="5" fill="#BFE3F2" stroke="#21314B" stroke-width="1.5"/><text x="457" y="272.5" font-size="7.5" font-weight="600" fill="#21314B" opacity="0.72">112</text><text x="469.5" y="286.0" text-anchor="middle" font-size="15" font-weight="800" fill="#21314B">Cn</text></g>
  <g><rect x="489" y="262" width="33" height="33" rx="5" fill="#B9E4D0" stroke="#21314B" stroke-width="1.5"/><text x="493" y="272.5" font-size="7.5" font-weight="600" fill="#21314B" opacity="0.72">113</text><text x="505.5" y="286.0" text-anchor="middle" font-size="15" font-weight="800" fill="#21314B">Nh</text></g>
  <g><rect x="525" y="262" width="33" height="33" rx="5" fill="#B9E4D0" stroke="#21314B" stroke-width="1.5"/><text x="529" y="272.5" font-size="7.5" font-weight="600" fill="#21314B" opacity="0.72">114</text><text x="541.5" y="286.0" text-anchor="middle" font-size="15" font-weight="800" fill="#21314B">Fl</text></g>
  <g><rect x="561" y="262" width="33" height="33" rx="5" fill="#B9E4D0" stroke="#21314B" stroke-width="1.5"/><text x="565" y="272.5" font-size="7.5" font-weight="600" fill="#21314B" opacity="0.72">115</text><text x="577.5" y="286.0" text-anchor="middle" font-size="15" font-weight="800" fill="#21314B">Mc</text></g>
  <g><rect x="597" y="262" width="33" height="33" rx="5" fill="#B9E4D0" stroke="#21314B" stroke-width="1.5"/><text x="601" y="272.5" font-size="7.5" font-weight="600" fill="#21314B" opacity="0.72">116</text><text x="613.5" y="286.0" text-anchor="middle" font-size="15" font-weight="800" fill="#21314B">Lv</text></g>
  <g><rect x="633" y="262" width="33" height="33" rx="5" fill="#F7B7D2" stroke="#21314B" stroke-width="1.5"/><text x="637" y="272.5" font-size="7.5" font-weight="600" fill="#21314B" opacity="0.72">117</text><text x="649.5" y="286.0" text-anchor="middle" font-size="15" font-weight="800" fill="#21314B">Ts</text></g>
  <g><rect x="669" y="262" width="33" height="33" rx="5" fill="#C9D4F7" stroke="#21314B" stroke-width="1.5"/><text x="673" y="272.5" font-size="7.5" font-weight="600" fill="#21314B" opacity="0.72">118</text><text x="685.5" y="286.0" text-anchor="middle" font-size="15" font-weight="800" fill="#21314B">Og</text></g>
  <g><rect x="129" y="311" width="33" height="33" rx="5" fill="#D9C2F0" stroke="#21314B" stroke-width="1.5"/><text x="133" y="321.5" font-size="7.5" font-weight="600" fill="#21314B" opacity="0.72">57</text><text x="145.5" y="335.0" text-anchor="middle" font-size="15" font-weight="800" fill="#21314B">La</text></g>
  <g><rect x="165" y="311" width="33" height="33" rx="5" fill="#D9C2F0" stroke="#21314B" stroke-width="1.5"/><text x="169" y="321.5" font-size="7.5" font-weight="600" fill="#21314B" opacity="0.72">58</text><text x="181.5" y="335.0" text-anchor="middle" font-size="15" font-weight="800" fill="#21314B">Ce</text></g>
  <g><rect x="201" y="311" width="33" height="33" rx="5" fill="#D9C2F0" stroke="#21314B" stroke-width="1.5"/><text x="205" y="321.5" font-size="7.5" font-weight="600" fill="#21314B" opacity="0.72">59</text><text x="217.5" y="335.0" text-anchor="middle" font-size="15" font-weight="800" fill="#21314B">Pr</text></g>
  <g><rect x="237" y="311" width="33" height="33" rx="5" fill="#D9C2F0" stroke="#21314B" stroke-width="1.5"/><text x="241" y="321.5" font-size="7.5" font-weight="600" fill="#21314B" opacity="0.72">60</text><text x="253.5" y="335.0" text-anchor="middle" font-size="15" font-weight="800" fill="#21314B">Nd</text></g>
  <g><rect x="273" y="311" width="33" height="33" rx="5" fill="#D9C2F0" stroke="#21314B" stroke-width="1.5"/><text x="277" y="321.5" font-size="7.5" font-weight="600" fill="#21314B" opacity="0.72">61</text><text x="289.5" y="335.0" text-anchor="middle" font-size="15" font-weight="800" fill="#21314B">Pm</text></g>
  <g><rect x="309" y="311" width="33" height="33" rx="5" fill="#D9C2F0" stroke="#21314B" stroke-width="1.5"/><text x="313" y="321.5" font-size="7.5" font-weight="600" fill="#21314B" opacity="0.72">62</text><text x="325.5" y="335.0" text-anchor="middle" font-size="15" font-weight="800" fill="#21314B">Sm</text></g>
  <g><rect x="345" y="311" width="33" height="33" rx="5" fill="#D9C2F0" stroke="#21314B" stroke-width="1.5"/><text x="349" y="321.5" font-size="7.5" font-weight="600" fill="#21314B" opacity="0.72">63</text><text x="361.5" y="335.0" text-anchor="middle" font-size="15" font-weight="800" fill="#21314B">Eu</text></g>
  <g><rect x="381" y="311" width="33" height="33" rx="5" fill="#D9C2F0" stroke="#21314B" stroke-width="1.5"/><text x="385" y="321.5" font-size="7.5" font-weight="600" fill="#21314B" opacity="0.72">64</text><text x="397.5" y="335.0" text-anchor="middle" font-size="15" font-weight="800" fill="#21314B">Gd</text></g>
  <g><rect x="417" y="311" width="33" height="33" rx="5" fill="#D9C2F0" stroke="#21314B" stroke-width="1.5"/><text x="421" y="321.5" font-size="7.5" font-weight="600" fill="#21314B" opacity="0.72">65</text><text x="433.5" y="335.0" text-anchor="middle" font-size="15" font-weight="800" fill="#21314B">Tb</text></g>
  <g><rect x="453" y="311" width="33" height="33" rx="5" fill="#D9C2F0" stroke="#21314B" stroke-width="1.5"/><text x="457" y="321.5" font-size="7.5" font-weight="600" fill="#21314B" opacity="0.72">66</text><text x="469.5" y="335.0" text-anchor="middle" font-size="15" font-weight="800" fill="#21314B">Dy</text></g>
  <g><rect x="489" y="311" width="33" height="33" rx="5" fill="#D9C2F0" stroke="#21314B" stroke-width="1.5"/><text x="493" y="321.5" font-size="7.5" font-weight="600" fill="#21314B" opacity="0.72">67</text><text x="505.5" y="335.0" text-anchor="middle" font-size="15" font-weight="800" fill="#21314B">Ho</text></g>
  <g><rect x="525" y="311" width="33" height="33" rx="5" fill="#D9C2F0" stroke="#21314B" stroke-width="1.5"/><text x="529" y="321.5" font-size="7.5" font-weight="600" fill="#21314B" opacity="0.72">68</text><text x="541.5" y="335.0" text-anchor="middle" font-size="15" font-weight="800" fill="#21314B">Er</text></g>
  <g><rect x="561" y="311" width="33" height="33" rx="5" fill="#D9C2F0" stroke="#21314B" stroke-width="1.5"/><text x="565" y="321.5" font-size="7.5" font-weight="600" fill="#21314B" opacity="0.72">69</text><text x="577.5" y="335.0" text-anchor="middle" font-size="15" font-weight="800" fill="#21314B">Tm</text></g>
  <g><rect x="597" y="311" width="33" height="33" rx="5" fill="#D9C2F0" stroke="#21314B" stroke-width="1.5"/><text x="601" y="321.5" font-size="7.5" font-weight="600" fill="#21314B" opacity="0.72">70</text><text x="613.5" y="335.0" text-anchor="middle" font-size="15" font-weight="800" fill="#21314B">Yb</text></g>
  <g><rect x="129" y="347" width="33" height="33" rx="5" fill="#F2C4DC" stroke="#21314B" stroke-width="1.5"/><text x="133" y="357.5" font-size="7.5" font-weight="600" fill="#21314B" opacity="0.72">89</text><text x="145.5" y="371.0" text-anchor="middle" font-size="15" font-weight="800" fill="#21314B">Ac</text></g>
  <g><rect x="165" y="347" width="33" height="33" rx="5" fill="#F2C4DC" stroke="#21314B" stroke-width="1.5"/><text x="169" y="357.5" font-size="7.5" font-weight="600" fill="#21314B" opacity="0.72">90</text><text x="181.5" y="371.0" text-anchor="middle" font-size="15" font-weight="800" fill="#21314B">Th</text></g>
  <g><rect x="201" y="347" width="33" height="33" rx="5" fill="#F2C4DC" stroke="#21314B" stroke-width="1.5"/><text x="205" y="357.5" font-size="7.5" font-weight="600" fill="#21314B" opacity="0.72">91</text><text x="217.5" y="371.0" text-anchor="middle" font-size="15" font-weight="800" fill="#21314B">Pa</text></g>
  <g><rect x="237" y="347" width="33" height="33" rx="5" fill="#F2C4DC" stroke="#21314B" stroke-width="1.5"/><text x="241" y="357.5" font-size="7.5" font-weight="600" fill="#21314B" opacity="0.72">92</text><text x="253.5" y="371.0" text-anchor="middle" font-size="15" font-weight="800" fill="#21314B">U</text></g>
  <g><rect x="273" y="347" width="33" height="33" rx="5" fill="#F2C4DC" stroke="#21314B" stroke-width="1.5"/><text x="277" y="357.5" font-size="7.5" font-weight="600" fill="#21314B" opacity="0.72">93</text><text x="289.5" y="371.0" text-anchor="middle" font-size="15" font-weight="800" fill="#21314B">Np</text></g>
  <g><rect x="309" y="347" width="33" height="33" rx="5" fill="#F2C4DC" stroke="#21314B" stroke-width="1.5"/><text x="313" y="357.5" font-size="7.5" font-weight="600" fill="#21314B" opacity="0.72">94</text><text x="325.5" y="371.0" text-anchor="middle" font-size="15" font-weight="800" fill="#21314B">Pu</text></g>
  <g><rect x="345" y="347" width="33" height="33" rx="5" fill="#F2C4DC" stroke="#21314B" stroke-width="1.5"/><text x="349" y="357.5" font-size="7.5" font-weight="600" fill="#21314B" opacity="0.72">95</text><text x="361.5" y="371.0" text-anchor="middle" font-size="15" font-weight="800" fill="#21314B">Am</text></g>
  <g><rect x="381" y="347" width="33" height="33" rx="5" fill="#F2C4DC" stroke="#21314B" stroke-width="1.5"/><text x="385" y="357.5" font-size="7.5" font-weight="600" fill="#21314B" opacity="0.72">96</text><text x="397.5" y="371.0" text-anchor="middle" font-size="15" font-weight="800" fill="#21314B">Cm</text></g>
  <g><rect x="417" y="347" width="33" height="33" rx="5" fill="#F2C4DC" stroke="#21314B" stroke-width="1.5"/><text x="421" y="357.5" font-size="7.5" font-weight="600" fill="#21314B" opacity="0.72">97</text><text x="433.5" y="371.0" text-anchor="middle" font-size="15" font-weight="800" fill="#21314B">Bk</text></g>
  <g><rect x="453" y="347" width="33" height="33" rx="5" fill="#F2C4DC" stroke="#21314B" stroke-width="1.5"/><text x="457" y="357.5" font-size="7.5" font-weight="600" fill="#21314B" opacity="0.72">98</text><text x="469.5" y="371.0" text-anchor="middle" font-size="15" font-weight="800" fill="#21314B">Cf</text></g>
  <g><rect x="489" y="347" width="33" height="33" rx="5" fill="#F2C4DC" stroke="#21314B" stroke-width="1.5"/><text x="493" y="357.5" font-size="7.5" font-weight="600" fill="#21314B" opacity="0.72">99</text><text x="505.5" y="371.0" text-anchor="middle" font-size="15" font-weight="800" fill="#21314B">Es</text></g>
  <g><rect x="525" y="347" width="33" height="33" rx="5" fill="#F2C4DC" stroke="#21314B" stroke-width="1.5"/><text x="529" y="357.5" font-size="7.5" font-weight="600" fill="#21314B" opacity="0.72">100</text><text x="541.5" y="371.0" text-anchor="middle" font-size="15" font-weight="800" fill="#21314B">Fm</text></g>
  <g><rect x="561" y="347" width="33" height="33" rx="5" fill="#F2C4DC" stroke="#21314B" stroke-width="1.5"/><text x="565" y="357.5" font-size="7.5" font-weight="600" fill="#21314B" opacity="0.72">101</text><text x="577.5" y="371.0" text-anchor="middle" font-size="15" font-weight="800" fill="#21314B">Md</text></g>
  <g><rect x="597" y="347" width="33" height="33" rx="5" fill="#F2C4DC" stroke="#21314B" stroke-width="1.5"/><text x="601" y="357.5" font-size="7.5" font-weight="600" fill="#21314B" opacity="0.72">102</text><text x="613.5" y="371.0" text-anchor="middle" font-size="15" font-weight="800" fill="#21314B">No</text></g>

  <!-- comic burst erupting from the table -->
  <g><line x1="489.5" y1="175.6" x2="515.5" y2="175.6" stroke="#21314B" stroke-width="3.4" stroke-linecap="round"/>
  <line x1="474.8" y1="230.6" x2="497.3" y2="243.6" stroke="#21314B" stroke-width="3.4" stroke-linecap="round"/>
  <line x1="434.5" y1="270.9" x2="447.5" y2="293.4" stroke="#21314B" stroke-width="3.4" stroke-linecap="round"/>
  <line x1="379.5" y1="285.6" x2="379.5" y2="311.6" stroke="#21314B" stroke-width="3.4" stroke-linecap="round"/>
  <line x1="324.5" y1="270.9" x2="311.5" y2="293.4" stroke="#21314B" stroke-width="3.4" stroke-linecap="round"/>
  <line x1="284.2" y1="230.6" x2="261.7" y2="243.6" stroke="#21314B" stroke-width="3.4" stroke-linecap="round"/>
  <line x1="269.5" y1="175.6" x2="243.5" y2="175.6" stroke="#21314B" stroke-width="3.4" stroke-linecap="round"/>
  <line x1="284.2" y1="120.6" x2="261.7" y2="107.6" stroke="#21314B" stroke-width="3.4" stroke-linecap="round"/>
  <line x1="324.5" y1="80.3" x2="311.5" y2="57.8" stroke="#21314B" stroke-width="3.4" stroke-linecap="round"/>
  <line x1="379.5" y1="65.6" x2="379.5" y2="39.6" stroke="#21314B" stroke-width="3.4" stroke-linecap="round"/>
  <line x1="434.5" y1="80.3" x2="447.5" y2="57.8" stroke="#21314B" stroke-width="3.4" stroke-linecap="round"/>
  <line x1="474.8" y1="120.6" x2="497.3" y2="107.6" stroke="#21314B" stroke-width="3.4" stroke-linecap="round"/></g>
  <path d="M 485.5,175.6 L 452.1,190.0 L 477.4,216.2 L 441.0,216.7 L 454.5,250.6 L 420.6,237.1 L 420.1,273.5 L 393.9,248.2 L 379.5,281.6 L 365.1,248.2 L 338.9,273.5 L 338.4,237.1 L 304.5,250.6 L 318.0,216.7 L 281.6,216.2 L 306.9,190.0 L 273.5,175.6 L 306.9,161.2 L 281.6,135.0 L 318.0,134.5 L 304.5,100.6 L 338.4,114.1 L 338.9,77.7 L 365.1,103.0 L 379.5,69.6 L 393.9,103.0 L 420.1,77.7 L 420.6,114.1 L 454.5,100.6 L 441.0,134.5 L 477.4,135.0 L 452.1,161.2 Z" fill="#FFD23F" stroke="#21314B" stroke-width="5" stroke-linejoin="round"/>
  <path d="M 467.8,192.8 L 440.6,200.6 L 454.5,225.3 L 426.4,222.1 L 429.8,250.2 L 405.0,236.5 L 397.4,263.8 L 379.8,241.6 L 362.3,263.9 L 354.5,236.7 L 329.8,250.6 L 333.0,222.5 L 304.9,225.9 L 318.6,201.1 L 291.3,193.5 L 313.5,175.9 L 291.2,158.4 L 318.4,150.6 L 304.5,125.9 L 332.6,129.1 L 329.2,101.0 L 354.0,114.7 L 361.6,87.4 L 379.2,109.6 L 396.7,87.3 L 404.5,114.5 L 429.2,100.6 L 426.0,128.7 L 454.1,125.3 L 440.4,150.1 L 467.7,157.7 L 445.5,175.3 Z" fill="#FFE680"/>
  <path d="M 251.5,108.6 l 2.6,6 6.4,0 -5,4.2 2,6.4 -6,-4 -6,4 2,-6.4 -5,-4.2 6.4,0 z" fill="#FF7A2F" stroke="#21314B" stroke-width="1.6" stroke-linejoin="round"/>
  <circle cx="507.5" cy="123.6" r="5.5" fill="#2E9BD6" stroke="#21314B" stroke-width="1.6"/>
  <path d="M 259.5,240.6 l 2.6,6 6.4,0 -5,4.2 2,6.4 -6,-4 -6,4 2,-6.4 -5,-4.2 6.4,0 z" fill="#FFD23F" stroke="#21314B" stroke-width="1.6" stroke-linejoin="round"/>
  <circle cx="501.5" cy="245.6" r="5.5" fill="#E94F8A" stroke="#21314B" stroke-width="1.6"/>
  <path d="M 229.5,172.6 l 2.6,6 6.4,0 -5,4.2 2,6.4 -6,-4 -6,4 2,-6.4 -5,-4.2 6.4,0 z" fill="#3CC6A6" stroke="#21314B" stroke-width="1.6" stroke-linejoin="round"/>
  <circle cx="529.5" cy="181.6" r="5.5" fill="#FF7A2F" stroke="#21314B" stroke-width="1.6"/>
  <path d="M 321.5,48.599999999999994 l 2.6,6 6.4,0 -5,4.2 2,6.4 -6,-4 -6,4 2,-6.4 -5,-4.2 6.4,0 z" fill="#2E9BD6" stroke="#21314B" stroke-width="1.6" stroke-linejoin="round"/>
  <circle cx="445.5" cy="295.6" r="5.5" fill="#FFD23F" stroke="#21314B" stroke-width="1.6"/>

  <!-- the one fictitious element, popping out -->
  <g filter="url(#sh)"><g transform="rotate(-8 379.5 175.6)">
    <rect x="329.5" y="125.6" width="120" height="120" rx="16" fill="#D9691A"/>
    <rect x="319.5" y="115.6" width="120" height="120" rx="16" fill="#FFA630" stroke="#21314B" stroke-width="6"/>
    <rect x="331.5" y="127.6" width="96" height="96" rx="10" fill="#CFEBF7" stroke="#21314B" stroke-width="3"/>
    <text x="341.5" y="149.6" font-size="20" font-weight="800" fill="#21314B">?!</text>
    <text x="379.5" y="189.6" text-anchor="middle" font-size="50" font-weight="800" fill="#D9691A">Ah</text>
    <text x="379.5" y="215.6" text-anchor="middle" font-size="15" font-weight="800" letter-spacing="1" fill="#21314B">Surprise</text>
  </g></g>
</svg>